<?xml version="1.0" encoding="iso-8859-1"?>
<!-- Generator: Adobe Illustrator 19.0.0, SVG Export Plug-In . SVG Version: 6.00 Build 0)  -->
<svg version="1.1" id="Layer_1" xmlns="http://www.w3.org/2000/svg" xmlns:xlink="http://www.w3.org/1999/xlink" x="0px" y="0px"
	 viewBox="0 0 512 512" style="enable-background:new 0 0 512 512;" xml:space="preserve">
<path style="fill:#F9F5F2;" d="M144.183,41.195c-20.747,0-38.707,106.033-47.398,260.457
	c-6.997-109.914-19.31-188.901-33.784-208.59c9.523-3.017,16.446-11.934,16.446-22.442c0-12.98-10.56-23.54-23.54-23.54
	c-12.975,0-23.536,10.558-23.54,23.54c0,10.507,6.922,19.424,16.443,22.442C26.176,123.864,8.827,299.697,8.827,512l0,0h82.391
	h11.77h94.161l0,0C197.149,251.982,173.436,41.195,144.183,41.195z"/>
<g>
	<path style="fill:#D8CCBC;" d="M161.838,170.667v105.931h35.31c0-32.502,26.349-58.851,58.851-58.851s58.851,26.349,58.851,58.851
		h35.31V170.667H161.838z"/>
	<rect x="161.838" y="276.598" style="fill:#D8CCBC;" width="188.322" height="235.402"/>
</g>
<path style="fill:#454449;" d="M255.999,464.92c-9.75,0-17.655,7.905-17.655,17.655V512h35.31v-29.425
	C273.655,472.824,265.75,464.92,255.999,464.92z"/>
<path style="fill:#EBE4DD;" d="M151.654,45.845c9.325-3.132,16.07-11.937,16.07-22.304c0-12.98-10.56-23.54-23.54-23.54
	c-12.975,0-23.536,10.558-23.54,23.54c0,10.369,6.747,19.176,16.074,22.307c-17.53,21.985-32.303,120.245-39.932,255.806
	c-0.016-0.261-0.034-0.519-0.051-0.78V512h6.253h94.161l0,0C197.149,274.521,177.369,78.112,151.654,45.845z"/>
<path style="fill:#BFA993;" d="M456.091,88.276c-17.496,0-32.762,85.891-40.878,213.377
	C407.584,166.09,392.812,67.83,375.281,45.847c9.328-3.131,16.074-11.937,16.074-22.307c0-12.98-10.56-23.54-23.54-23.54
	c-12.975,0-23.536,10.558-23.54,23.54c0,10.367,6.744,19.174,16.069,22.306C334.631,78.115,314.85,274.523,314.85,512l0,0h94.161
	h11.77h82.391l0,0C503.172,277.983,482.094,88.276,456.091,88.276z"/>
<path style="fill:#A58868;" d="M463.19,93.062c9.521-3.018,16.443-11.935,16.443-22.441c0-12.98-10.56-23.54-23.54-23.54
	c-12.975,0-23.536,10.558-23.54,23.54c0,10.508,6.923,19.427,16.446,22.443c-14.475,19.689-26.786,98.675-33.784,208.589
	c-0.001-0.027-0.004-0.053-0.005-0.08V512h5.572h82.391l0,0C503.172,299.695,485.824,123.863,463.19,93.062z"/>
<path style="fill:#88888F;" d="M255.999,411.954c-29.205,0-52.966-23.759-52.966-52.966c0-29.205,23.76-52.966,52.966-52.966
	c29.206,0,52.966,23.76,52.966,52.966C308.965,388.195,285.206,411.954,255.999,411.954z M255.999,341.333
	c-9.735,0-17.655,7.92-17.655,17.655c0,9.736,7.92,17.655,17.655,17.655s17.655-7.919,17.655-17.655
	C273.655,349.253,265.736,341.333,255.999,341.333z"/>
<g>
	<rect x="350.16" y="323.678" style="fill:#797781;" width="35.31" height="117.701"/>
	<rect x="438.436" y="323.678" style="fill:#797781;" width="35.31" height="117.701"/>
</g>
<g>
	<rect x="126.528" y="323.678" style="fill:#88888F;" width="35.31" height="117.701"/>
	<rect x="38.252" y="323.678" style="fill:#88888F;" width="35.31" height="117.701"/>
</g>
<path style="fill:#797781;" d="M255.999,306.023v35.31c9.735,0,17.655,7.92,17.655,17.655c0,9.736-7.92,17.655-17.655,17.655v35.31
	c29.206,0,52.966-23.759,52.966-52.966C308.965,329.783,285.206,306.023,255.999,306.023z"/>
<g>
</g>
<g>
</g>
<g>
</g>
<g>
</g>
<g>
</g>
<g>
</g>
<g>
</g>
<g>
</g>
<g>
</g>
<g>
</g>
<g>
</g>
<g>
</g>
<g>
</g>
<g>
</g>
<g>
</g>
</svg>
