<?xml version="1.0" encoding="UTF-8" standalone="no"?>
<!-- Created with Inkscape (http://www.inkscape.org/) -->

<svg
   xmlns:dc="http://purl.org/dc/elements/1.1/"
   xmlns:cc="http://creativecommons.org/ns#"
   xmlns:rdf="http://www.w3.org/1999/02/22-rdf-syntax-ns#"
   xmlns:svg="http://www.w3.org/2000/svg"
   xmlns="http://www.w3.org/2000/svg"
   xmlns:sodipodi="http://sodipodi.sourceforge.net/DTD/sodipodi-0.dtd"
   xmlns:inkscape="http://www.inkscape.org/namespaces/inkscape"
   width="115.37271mm"
   height="87.34816mm"
   viewBox="0 0 408.80095 309.50135"
   id="svg4447"
   version="1.1"
   inkscape:version="0.91 r13725"
   sodipodi:docname="escarabajo.svg">
  <defs
     id="defs4449" />
  <sodipodi:namedview
     id="base"
     pagecolor="#ffffff"
     bordercolor="#666666"
     borderopacity="1.0"
     inkscape:pageopacity="0.0"
     inkscape:pageshadow="2"
     inkscape:zoom="1.01"
     inkscape:cx="146.97988"
     inkscape:cy="122.33758"
     inkscape:document-units="px"
     inkscape:current-layer="layer1"
     showgrid="false"
     inkscape:window-width="1440"
     inkscape:window-height="806"
     inkscape:window-x="5"
     inkscape:window-y="0"
     inkscape:window-maximized="0"
     fit-margin-top="0"
     fit-margin-left="0"
     fit-margin-right="0"
     fit-margin-bottom="0" />
  <metadata
     id="metadata4452">
    <rdf:RDF>
      <cc:Work
         rdf:about="">
        <dc:format>image/svg+xml</dc:format>
        <dc:type
           rdf:resource="http://purl.org/dc/dcmitype/StillImage" />
        <dc:title></dc:title>
      </cc:Work>
    </rdf:RDF>
  </metadata>
  <g
     inkscape:label="Capa 1"
     inkscape:groupmode="layer"
     id="layer1"
     transform="translate(-98.504926,-564.04425)">
    <path
       transform="matrix(-0.42848947,-0.90354677,-0.96855791,0.24878823,0,0)"
       d="m -619.67259,16.644983 a 105.80977,113.94299 0 0 1 -53.24117,98.885717 105.80977,113.94299 0 0 1 -106.14391,-0.62855 105.80977,113.94299 0 0 1 -52.22806,-99.51028 l 105.80337,1.253113 z"
       sodipodi:end="3.1525906"
       sodipodi:start="0"
       sodipodi:ry="113.94299"
       sodipodi:rx="105.80977"
       sodipodi:cy="16.644983"
       sodipodi:cx="-725.48236"
       sodipodi:type="arc"
       id="path5142"
       style="fill:#338000;fill-opacity:1;fill-rule:nonzero;stroke:none;stroke-width:10;stroke-linecap:round;stroke-linejoin:bevel;stroke-miterlimit:4;stroke-dasharray:none;stroke-dashoffset:0;stroke-opacity:1" />
    <path
       transform="matrix(-0.98562025,-0.16897553,-0.16897553,0.98562025,0,0)"
       d="m -213.25703,651.56555 a 106.03448,108.18932 0 0 1 -53.35423,93.89238 106.03448,108.18932 0 0 1 -106.36934,-0.59681 106.03448,108.18932 0 0 1 -52.33897,-94.4854 l 106.02807,1.18983 z"
       sodipodi:end="3.1525906"
       sodipodi:start="0"
       sodipodi:ry="108.18932"
       sodipodi:rx="106.03448"
       sodipodi:cy="651.56555"
       sodipodi:cx="-319.2915"
       sodipodi:type="arc"
       id="path5124"
       style="opacity:0.81999984;fill:#454837;fill-opacity:1;fill-rule:nonzero;stroke:none;stroke-width:10;stroke-linecap:round;stroke-linejoin:bevel;stroke-miterlimit:4;stroke-dasharray:none;stroke-dashoffset:0;stroke-opacity:1" />
    <path
       style="fill:#338000;fill-opacity:1;fill-rule:nonzero;stroke:none;stroke-width:10;stroke-linecap:round;stroke-linejoin:bevel;stroke-miterlimit:4;stroke-dasharray:none;stroke-dashoffset:0;stroke-opacity:1"
       id="path5122"
       sodipodi:type="arc"
       sodipodi:cx="-562.73523"
       sodipodi:cy="590.08765"
       sodipodi:rx="105.80977"
       sodipodi:ry="113.94299"
       sodipodi:start="0"
       sodipodi:end="3.1525906"
       d="m -456.92546,590.08765 a 105.80977,113.94299 0 0 1 -53.24117,98.88572 105.80977,113.94299 0 0 1 -106.14391,-0.62856 105.80977,113.94299 0 0 1 -52.22806,-99.51028 l 105.80337,1.25312 z"
       transform="matrix(0.44107753,-0.897469,0.96498568,0.26230258,0,0)" />
    <path
       sodipodi:nodetypes="czc"
       inkscape:connector-curvature="0"
       id="path5116"
       d="m 241.75866,795.95943 c 0,0 -21.40702,10.6061 -24.20323,19.50168 -2.79622,8.89557 6.95408,23.87367 6.95408,23.87367"
       style="fill:none;fill-rule:evenodd;stroke:#000000;stroke-width:10;stroke-linecap:round;stroke-linejoin:miter;stroke-miterlimit:4;stroke-dasharray:none;stroke-opacity:1" />
    <path
       style="fill:none;fill-rule:evenodd;stroke:#000000;stroke-width:10;stroke-linecap:round;stroke-linejoin:miter;stroke-miterlimit:4;stroke-dasharray:none;stroke-opacity:1"
       d="m 255.17241,821.94841 c 0,0 -17.24138,16.53737 -17.24138,25.86207 0,9.3247 13.7931,20.68966 13.7931,20.68966"
       id="path5114"
       inkscape:connector-curvature="0"
       sodipodi:nodetypes="czc" />
    <path
       sodipodi:nodetypes="czc"
       inkscape:connector-curvature="0"
       id="path5120"
       d="m 363.98256,817.94841 c 0,0 17.24138,16.53737 17.24138,25.86207 0,9.3247 -13.7931,20.68966 -13.7931,20.68966"
       style="fill:none;fill-rule:evenodd;stroke:#000000;stroke-width:10;stroke-linecap:round;stroke-linejoin:miter;stroke-miterlimit:4;stroke-dasharray:none;stroke-opacity:1" />
    <path
       style="fill:none;fill-rule:evenodd;stroke:#000000;stroke-width:10;stroke-linecap:round;stroke-linejoin:miter;stroke-miterlimit:4;stroke-dasharray:none;stroke-opacity:1"
       d="m 379.03035,791.95943 c 0,0 21.40702,10.6061 24.20323,19.50168 2.79622,8.89557 -6.95408,23.87367 -6.95408,23.87367"
       id="path5118"
       inkscape:connector-curvature="0"
       sodipodi:nodetypes="czc" />
    <path
       style="opacity:0.81999966;fill:#454837;fill-opacity:1;fill-rule:nonzero;stroke:none;stroke-width:10;stroke-linecap:round;stroke-linejoin:bevel;stroke-miterlimit:4;stroke-dasharray:none;stroke-dashoffset:0;stroke-opacity:1"
       id="path5140"
       sodipodi:type="arc"
       sodipodi:cx="277.80786"
       sodipodi:cy="753.93286"
       sodipodi:rx="106.03448"
       sodipodi:ry="108.18932"
       sodipodi:start="0"
       sodipodi:end="3.1525906"
       d="M 383.84234,753.93286 A 106.03448,108.18932 0 0 1 330.4881,847.82524 106.03448,108.18932 0 0 1 224.11877,847.22843 106.03448,108.18932 0 0 1 171.7798,752.74302 l 106.02806,1.18984 z"
       transform="matrix(0.98562025,-0.16897553,0.16897553,0.98562025,0,0)" />
    <path
       d="m 402.37214,775.32776 a 92.670174,63.726849 0 0 1 -92.38309,63.72654 92.670174,63.726849 0 0 1 -92.95548,-63.3317 92.670174,63.726849 0 0 1 91.80714,-64.11894 92.670174,63.726849 0 0 1 93.52431,62.93443"
       sodipodi:open="true"
       sodipodi:end="6.2707935"
       sodipodi:start="0"
       sodipodi:ry="63.726849"
       sodipodi:rx="92.670174"
       sodipodi:cy="775.32776"
       sodipodi:cx="309.70197"
       sodipodi:type="arc"
       id="path5110"
       style="fill:#44aa00;fill-opacity:1;fill-rule:nonzero;stroke:none;stroke-width:1.13249552;stroke-linecap:round;stroke-linejoin:round;stroke-miterlimit:4;stroke-dasharray:none;stroke-dashoffset:0;stroke-opacity:1" />
    <path
       style="fill:#8acd4d;fill-opacity:1;fill-rule:nonzero;stroke:none;stroke-width:1.13249552;stroke-linecap:round;stroke-linejoin:round;stroke-miterlimit:4;stroke-dasharray:none;stroke-dashoffset:0;stroke-opacity:1"
       id="path4536"
       sodipodi:type="arc"
       sodipodi:cx="309.81995"
       sodipodi:cy="767.0174"
       sodipodi:rx="92.828018"
       sodipodi:ry="59.416504"
       sodipodi:start="0"
       sodipodi:end="6.2707935"
       sodipodi:open="true"
       d="m 402.64796,767.0174 a 92.828018,59.416504 0 0 1 -92.54044,59.41621 92.828018,59.416504 0 0 1 -93.11381,-59.04808 92.828018,59.416504 0 0 1 91.96352,-59.78207 92.828018,59.416504 0 0 1 93.68361,58.67768" />
    <path
       style="fill:#86cd4d;fill-rule:evenodd;stroke:none;stroke-width:1px;stroke-linecap:butt;stroke-linejoin:miter;stroke-opacity:1;fill-opacity:1"
       d="m 217.51724,759.25875 184.48276,0 c 0,0 -14.58498,-45.98497 -31.03448,-62.06897 -16.4495,-16.084 -39.95187,-29.02626 -62.06897,-29.31034 -22.1171,-0.28408 -42.05213,10.07277 -58.62069,25.86207 -16.56856,15.7893 -32.75862,65.51724 -32.75862,65.51724 z"
       id="path4538"
       inkscape:connector-curvature="0"
       sodipodi:nodetypes="cczzzc" />
    <path
       style="fill:#000000;fill-opacity:1;fill-rule:nonzero;stroke:none;stroke-width:1;stroke-linecap:round;stroke-linejoin:round;stroke-miterlimit:4;stroke-dasharray:none;stroke-dashoffset:0;stroke-opacity:1"
       id="path5092"
       sodipodi:type="arc"
       sodipodi:cx="260.34485"
       sodipodi:cy="744.60358"
       sodipodi:rx="18.965517"
       sodipodi:ry="19.827587"
       sodipodi:start="0"
       sodipodi:end="6.2707935"
       sodipodi:open="true"
       d="m 279.31037,744.60358 a 18.965517,19.827587 0 0 1 -18.90677,19.82749 18.965517,19.827587 0 0 1 -19.0239,-19.70464 18.965517,19.827587 0 0 1 18.78889,-19.94958 18.965517,19.827587 0 0 1 19.14032,19.58103" />
    <path
       d="m 382.75864,742.87946 a 18.965517,19.827587 0 0 1 -18.90676,19.82749 18.965517,19.827587 0 0 1 -19.02391,-19.70465 18.965517,19.827587 0 0 1 18.78889,-19.94958 18.965517,19.827587 0 0 1 19.14032,19.58104"
       sodipodi:open="true"
       sodipodi:end="6.2707935"
       sodipodi:start="0"
       sodipodi:ry="19.827587"
       sodipodi:rx="18.965517"
       sodipodi:cy="742.87946"
       sodipodi:cx="363.79312"
       sodipodi:type="arc"
       id="path5094"
       style="fill:#000000;fill-opacity:1;fill-rule:nonzero;stroke:none;stroke-width:1;stroke-linecap:round;stroke-linejoin:round;stroke-miterlimit:4;stroke-dasharray:none;stroke-dashoffset:0;stroke-opacity:1" />
    <path
       style="fill:#ffffff;fill-opacity:1;fill-rule:nonzero;stroke:none;stroke-width:1;stroke-linecap:round;stroke-linejoin:round;stroke-miterlimit:4;stroke-dasharray:none;stroke-dashoffset:0;stroke-opacity:1"
       id="path5096"
       sodipodi:type="arc"
       sodipodi:cx="268.58621"
       sodipodi:cy="742.53467"
       sodipodi:rx="6.034483"
       sodipodi:ry="6.0344825"
       sodipodi:start="0"
       sodipodi:end="6.2707935"
       sodipodi:open="true"
       d="m 274.6207,742.53467 a 6.034483,6.0344825 0 0 1 -6.01579,6.03445 6.034483,6.0344825 0 0 1 -6.05306,-5.99706 6.034483,6.0344825 0 0 1 5.97828,-6.07161 6.034483,6.0344825 0 0 1 6.0901,5.95944" />
    <path
       d="m 362.6207,742.53467 a 6.034483,6.0344825 0 0 1 -6.01579,6.03445 6.034483,6.0344825 0 0 1 -6.05306,-5.99706 6.034483,6.0344825 0 0 1 5.97828,-6.07161 6.034483,6.0344825 0 0 1 6.0901,5.95944"
       sodipodi:open="true"
       sodipodi:end="6.2707935"
       sodipodi:start="0"
       sodipodi:ry="6.0344825"
       sodipodi:rx="6.034483"
       sodipodi:cy="742.53467"
       sodipodi:cx="356.58621"
       sodipodi:type="arc"
       id="path5098"
       style="fill:#ffffff;fill-opacity:1;fill-rule:nonzero;stroke:none;stroke-width:1;stroke-linecap:round;stroke-linejoin:round;stroke-miterlimit:4;stroke-dasharray:none;stroke-dashoffset:0;stroke-opacity:1" />
    <path
       style="fill:none;fill-rule:evenodd;stroke:#86cd4d;stroke-width:17.29037476;stroke-linecap:square;stroke-linejoin:miter;stroke-miterlimit:4;stroke-dasharray:none;stroke-opacity:1"
       d="m 255.41081,641.37828 c 0,0 -16.52684,9.20128 -17.35961,21.60533 -0.83278,12.40404 19.72683,34.98006 19.72683,34.98006"
       id="path5144"
       inkscape:connector-curvature="0"
       sodipodi:nodetypes="czc" />
    <path
       sodipodi:nodetypes="czc"
       inkscape:connector-curvature="0"
       id="path5146"
       d="m 361.94435,637.37828 c 0,0 16.52684,9.20128 17.35961,21.60533 0.83278,12.40404 -19.72683,34.98006 -19.72683,34.98006"
       style="fill:none;fill-rule:evenodd;stroke:#86cd4d;stroke-width:17.29037476;stroke-linecap:square;stroke-linejoin:miter;stroke-miterlimit:4;stroke-dasharray:none;stroke-opacity:1" />
    <path
       style="opacity:0.81999966;fill:#eef4d7;fill-opacity:1;fill-rule:nonzero;stroke:none;stroke-width:0;stroke-linecap:square;stroke-linejoin:bevel;stroke-miterlimit:4;stroke-dasharray:none;stroke-dashoffset:0;stroke-opacity:1"
       id="path5179"
       sodipodi:type="arc"
       sodipodi:cx="259.88358"
       sodipodi:cy="786.61829"
       sodipodi:rx="20.291306"
       sodipodi:ry="19.370583"
       sodipodi:start="0"
       sodipodi:end="3.2405005"
       sodipodi:open="true"
       d="m 280.17488,786.61829 a 20.291306,19.370583 0 0 1 -10.73042,17.08556 20.291306,19.370583 0 0 1 -20.84237,-0.98477 20.291306,19.370583 0 0 1 -8.91065,-18.01357"
       transform="matrix(0.99812747,-0.06116829,0.06437367,0.99792586,0,0)" />
  </g>
</svg>
