<?xml version="1.0" encoding="UTF-8" standalone="no"?>
<!-- Generator: Adobe Illustrator 16.0.4, SVG Export Plug-In . SVG Version: 6.00 Build 0)  -->

<svg
   xmlns:dc="http://purl.org/dc/elements/1.1/"
   xmlns:cc="http://creativecommons.org/ns#"
   xmlns:rdf="http://www.w3.org/1999/02/22-rdf-syntax-ns#"
   xmlns:svg="http://www.w3.org/2000/svg"
   xmlns="http://www.w3.org/2000/svg"
   xmlns:xlink="http://www.w3.org/1999/xlink"
   xmlns:sodipodi="http://sodipodi.sourceforge.net/DTD/sodipodi-0.dtd"
   xmlns:inkscape="http://www.inkscape.org/namespaces/inkscape"
   version="1.1"
   id="Layer_1"
   x="0px"
   y="0px"
   width="95.5px"
   height="102.167px"
   viewBox="0 0 95.5 102.167"
   enable-background="new 0 0 95.5 102.167"
   xml:space="preserve"
   inkscape:version="0.91 r13725"
   sodipodi:docname="hooks-step-1.svg"><metadata
     id="metadata3554"><rdf:RDF><cc:Work
         rdf:about=""><dc:format>image/svg+xml</dc:format><dc:type
           rdf:resource="http://purl.org/dc/dcmitype/StillImage" /></cc:Work></rdf:RDF></metadata><defs
     id="defs3552" /><sodipodi:namedview
     pagecolor="#ffffff"
     bordercolor="#666666"
     borderopacity="1"
     objecttolerance="10"
     gridtolerance="10"
     guidetolerance="10"
     inkscape:pageopacity="0"
     inkscape:pageshadow="2"
     inkscape:window-width="1072"
     inkscape:window-height="746"
     id="namedview3550"
     showgrid="false"
     inkscape:zoom="5.8727378"
     inkscape:cx="36.790139"
     inkscape:cy="51.0835"
     inkscape:window-x="0"
     inkscape:window-y="0"
     inkscape:window-maximized="0"
     inkscape:current-layer="Layer_1" /><g
     id="g3474"><g
       id="g3476"><g
         id="g3478"><defs
           id="defs3480"><circle
             id="SVGID_1_"
             cx="47.852"
             cy="47.758"
             r="45.986" /></defs><clipPath
           id="SVGID_2_"><use
             xlink:href="#SVGID_1_"
             overflow="visible"
             id="use3484" /></clipPath><g
           clip-path="url(#SVGID_2_)"
           id="g3486"><rect
             x="-31.067"
             y="-10.422"
             fill="#FFFFFF"
             width="139.824"
             height="115.677"
             id="rect3488" /></g></g></g></g><g
     id="g3490"><circle
       fill="none"
       stroke="#E7E8E6"
       stroke-width="2.6961"
       stroke-miterlimit="10"
       cx="47.852"
       cy="47.758"
       r="45.986"
       id="circle3492" /></g><g
     id="g3494"><circle
       fill="#34A665"
       cx="16.018"
       cy="87.731"
       r="14.151"
       id="circle3496"
       style="fill:#86cd4d;fill-opacity:1" /><g
       enable-background="new    "
       id="g3498"><path
         fill="#FFFFFF"
         d="M14.024,90.999h2.045v-6.584h-1.625v-0.742c0.812-0.141,1.401-0.364,1.891-0.658h0.882v7.984h1.849v0.952    h-5.043V90.999z"
         id="path3500" /></g></g><g
     id="g3518"
     transform="translate(14.814215,0.17027833)"
     style="fill:#eeeeee;fill-opacity:1"><path
       d="m 56.484,54.819 c 0,1.161 -0.95,2.111 -2.111,2.111 l -41.766,0 c -1.162,0 -2.112,-0.95 -2.112,-2.111 l 0,-16.681 c 0,-1.162 0.95,-2.112 2.112,-2.112 l 41.766,0 c 1.161,0 2.111,0.95 2.111,2.112 l 0,16.681 z"
       id="path3520"
       inkscape:connector-curvature="0"
       style="fill:#eeeeee;fill-opacity:1" /></g><g
     id="g3522"
     transform="translate(14.814215,0.17027833)"
     style="fill:#86cd4d;fill-opacity:1"><path
       d="m 33.145,53.439 c 0,0.641 -0.523,1.163 -1.164,1.163 l -18.035,0 c -0.64,0 -1.164,-0.522 -1.164,-1.163 l 0,-13.962 c 0,-0.64 0.523,-1.164 1.164,-1.164 l 18.035,0 c 0.64,0 1.164,0.523 1.164,1.164 l 0,13.962 z"
       id="path3524"
       inkscape:connector-curvature="0"
       style="fill:#86cd4d;fill-opacity:1" /></g><g
     id="g3528"
     transform="matrix(1.4090361,0,0,1.2859313,-26.376047,-16.37719)"><g
       id="g3530"><g
         id="g3532"><g
           id="g3534"><rect
             x="50.816002"
             y="56.623001"
             width="0.0089999996"
             height="0.018999999"
             id="rect3536"
             style="fill:#ffffff" /><polygon
             points="46.704,61.352 47.268,61.298 47.381,62.541 47.936,62.49 48.047,63.714 48.29,63.692 48.613,63.666 48.727,64.917 49.293,64.867 49.409,66.119 53.936,65.705 53.823,64.453 54.374,64.401 54.204,62.528 54.756,62.477 54.366,58.218 54.191,58.235 54.191,58.233 53.799,58.268 53.743,57.649 53.189,57.701 53.189,57.696 53.189,57.696 53.357,59.535 52.792,59.583 52.566,57.108 52.559,57.108 52.559,57.112 51.434,57.214 51.604,59.069 51.038,59.121 50.811,56.647 49.678,56.75 49.907,59.223 49.338,59.276 48.833,53.731 47.713,53.833 48.194,59.089 48.18,59.089 48.432,61.846 47.868,61.897 47.702,60.078 47.135,60.128 47.133,60.104 47.127,60.104 47.071,59.483 45.959,59.585 46.073,60.833 46.084,60.833 46.083,60.809 46.649,60.755 46.651,60.781 "
             id="polygon3538"
             style="fill:#ffffff" /></g><g
           id="g3540"><polygon
             points="50.811,56.647 51.038,59.121 51.604,59.069 51.434,57.214 52.559,57.112 52.502,56.494 51.377,56.596 51.377,56.589 50.816,56.641 50.762,56.026 49.624,56.13 49.396,53.671 48.857,53.721 48.803,53.108 47.657,53.212 47.713,53.833 48.833,53.731 49.338,59.276 49.907,59.223 49.678,56.75 "
             id="polygon3542"
             style="fill:#231f20" /><rect
             x="52.679001"
             y="57.077999"
             transform="matrix(-0.9957,0.093,-0.093,-0.9957,111.1204,111.466)"
             width="0.56699997"
             height="2.4890001"
             id="rect3544"
             style="fill:#231f20" /><polygon
             points="53.754,57.621 53.698,57 53.131,57.05 53.189,57.701 53.743,57.649 53.799,58.268 54.366,58.216 54.756,62.477 54.204,62.528 54.374,64.401 53.823,64.453 53.936,65.705 49.409,66.119 49.293,64.867 48.727,64.917 48.613,63.666 48.047,63.714 47.936,62.49 47.381,62.541 47.268,61.298 46.704,61.352 46.649,60.755 46.083,60.809 46.141,61.457 46.708,61.406 46.821,62.63 47.372,62.583 47.485,63.821 48.051,63.77 48.165,64.998 48.729,64.944 48.9,66.805 49.465,66.751 49.465,66.74 53.993,66.326 53.995,66.337 54.561,66.289 54.389,64.414 54.941,64.362 54.771,62.501 55.325,62.453 54.93,58.139 54.363,58.192 54.307,57.569 "
             id="polygon3546"
             style="fill:#231f20" /><polygon
             points="47.868,61.897 48.432,61.846 47.7,53.83 47.133,53.878 47.641,59.43 47.096,59.479 47.04,58.862 45.901,58.964 45.901,58.962 45.334,59.016 45.504,60.889 46.071,60.835 45.958,59.585 47.075,59.483 47.135,60.128 47.702,60.078 "
             id="polygon3548"
             style="fill:#231f20" /></g></g></g></g><text
     xml:space="preserve"
     style="font-style:normal;font-weight:normal;font-size:40px;line-height:125%;font-family:sans-serif;letter-spacing:0px;word-spacing:0px;fill:#ffffff;fill-opacity:1;stroke:none;stroke-width:1px;stroke-linecap:butt;stroke-linejoin:miter;stroke-opacity:1"
     x="31.842047"
     y="49.550995"
     id="text4373"
     sodipodi:linespacing="125%"><tspan
       sodipodi:role="line"
       id="tspan4375"
       x="31.842047"
       y="49.550995"
       style="font-size:7.5px;fill:#ffffff;fill-opacity:1">ON</tspan></text>
</svg>