<?xml version="1.0" encoding="UTF-8" standalone="no"?>
<!-- Created with Inkscape (http://www.inkscape.org/) -->

<svg
   xmlns:dc="http://purl.org/dc/elements/1.1/"
   xmlns:cc="http://creativecommons.org/ns#"
   xmlns:rdf="http://www.w3.org/1999/02/22-rdf-syntax-ns#"
   xmlns:svg="http://www.w3.org/2000/svg"
   xmlns="http://www.w3.org/2000/svg"
   xmlns:sodipodi="http://sodipodi.sourceforge.net/DTD/sodipodi-0.dtd"
   xmlns:inkscape="http://www.inkscape.org/namespaces/inkscape"
   version="1.0"
   width="5cm"
   height="2cm"
   id="svg115845"
   inkscape:version="0.91 r13725"
   sodipodi:docname="oracle.svg">
  <metadata
     id="metadata24">
    <rdf:RDF>
      <cc:Work
         rdf:about="">
        <dc:format>image/svg+xml</dc:format>
        <dc:type
           rdf:resource="http://purl.org/dc/dcmitype/StillImage" />
        <dc:title></dc:title>
      </cc:Work>
    </rdf:RDF>
  </metadata>
  <sodipodi:namedview
     pagecolor="#ffffff"
     bordercolor="#666666"
     borderopacity="1"
     objecttolerance="10"
     gridtolerance="10"
     guidetolerance="10"
     inkscape:pageopacity="0"
     inkscape:pageshadow="2"
     inkscape:window-width="1238"
     inkscape:window-height="720"
     id="namedview22"
     showgrid="false"
     fit-margin-top="0"
     fit-margin-left="0"
     fit-margin-right="0"
     fit-margin-bottom="0"
     inkscape:zoom="0.60194938"
     inkscape:cx="319.01737"
     inkscape:cy="1.7789957"
     inkscape:window-x="0"
     inkscape:window-y="0"
     inkscape:window-maximized="0"
     inkscape:current-layer="svg115845"
     units="cm" />
  <defs
     id="defs115847">
    <clipPath
       id="clp82">
      <path
         d="m 1001.6,870.49 34.7,0 0,-13.08 -34.7,0 0,13.08 z"
         id="path1826"
         inkscape:connector-curvature="0" />
    </clipPath>
    <clipPath
       id="clp83">
      <path
         d="m 1001.6,870.49 34.7,0 0,-13.08 -34.7,0 0,13.08 z"
         id="path1835"
         inkscape:connector-curvature="0" />
    </clipPath>
    <clipPath
       id="clp84">
      <path
         d="m 1001.6,870.49 34.7,0 0,-13.08 -34.7,0 0,13.08 z"
         id="path1844"
         inkscape:connector-curvature="0" />
    </clipPath>
    <clipPath
       id="clp81">
      <path
         d="m 1000.9,934.34 37.7,0 0,-12.1 -37.7,0 0,12.1 z"
         id="path1800"
         inkscape:connector-curvature="0" />
    </clipPath>
    <clipPath
       id="clipPath116030">
      <path
         d="m 1001.6,870.49 34.7,0 0,-13.08 -34.7,0 0,13.08 z"
         id="path116032"
         inkscape:connector-curvature="0" />
    </clipPath>
    <clipPath
       id="clipPath116038">
      <path
         d="m 1001.6,870.49 34.7,0 0,-13.08 -34.7,0 0,13.08 z"
         id="path116040"
         inkscape:connector-curvature="0" />
    </clipPath>
    <clipPath
       id="clipPath116046">
      <path
         d="m 1001.6,870.49 34.7,0 0,-13.08 -34.7,0 0,13.08 z"
         id="path116048"
         inkscape:connector-curvature="0" />
    </clipPath>
  </defs>
  <g
     transform="matrix(0.26574855,0,0,0.39761204,-185.04226,-265.35625)"
     id="layer1">
    <g
       id="g16337">
      <path
         d="m 980.65099,771.70039 40.65191,0 -21.49528,-34.58269 -39.45125,62.52702 -17.95495,0 47.98587,-75.10828 c 2.08639,-3.03469 5.56353,-4.8681 9.42033,-4.8681 3.72988,0 7.20708,1.77022 9.23028,4.74166 l 48.1755,75.23472 -17.955,0 -8.4719,-13.97216 -41.15803,0 -8.97748,-13.97217 z m 186.50631,13.97217 0,-65.24555 -15.2366,0 0,71.63104 c 0,1.9599 0.7588,3.85655 2.2128,5.31065 1.4539,1.45415 3.4139,2.27602 5.5635,2.27602 l 69.4816,0 8.9775,-13.97216 -70.9988,0 z M 915.08933,773.97641 c 14.79428,0 26.80655,-11.94902 26.80655,-26.7431 0,-14.79403 -12.01227,-26.8063 -26.80655,-26.8063 l -66.65566,0 0,79.21771 15.23056,0 0,-65.24554 50.4135,0 c 7.08118,0 12.77109,5.7532 12.77109,12.83413 0,7.08092 -5.68991,12.83418 -12.77109,12.83418 l -42.95316,-0.0633 45.4819,39.64048 22.12823,0 -30.59965,-25.66831 6.95428,0 z m -160.41412,25.66831 c -21.86889,0 -39.61555,-17.70228 -39.61555,-39.57723 0,-21.875 17.74666,-39.64048 39.61555,-39.64048 l 46.04457,0 c 21.87495,0 39.60898,17.76548 39.60898,39.64048 0,21.87495 -17.73403,39.57723 -39.60898,39.57723 l -46.04457,0 z m 45.02034,-13.97216 c 14.16841,0 25.64328,-11.44328 25.64328,-25.60507 0,-14.16185 -11.47487,-25.66831 -25.64328,-25.66831 l -44.00268,0 c -14.16184,0 -25.64329,11.50646 -25.64329,25.66831 0,14.16179 11.48145,25.60507 25.64329,25.60507 l 44.00268,0 z m 289.31865,13.97216 c -21.875,0 -39.6403,-17.70228 -39.6403,-39.57723 0,-21.875 17.7653,-39.64048 39.6403,-39.64048 l 54.6874,0 -8.9143,13.97217 -44.7615,0 c -14.1619,0 -25.6681,11.50646 -25.6681,25.66831 0,14.16179 11.5062,25.60507 25.6681,25.60507 l 54.9401,0 -8.9774,13.97216 -46.9743,0 z m 186.3167,-13.97216 c -11.6963,0 -21.6222,-7.8396 -24.657,-18.65064 l 65.1193,0 8.9775,-13.97216 -74.0968,0 c 3.0348,-10.7478 12.9607,-18.65058 24.657,-18.65058 l 44.6983,0 9.0407,-13.97217 -54.7506,0 c -21.875,0 -39.6403,17.76548 -39.6403,39.64048 0,21.87495 17.7653,39.57723 39.6403,39.57723 l 46.9743,0 8.9774,-13.97216 -54.9401,0"
         style="fill:#ea1b22;fill-rule:nonzero;stroke:none"
         id="path16197"
         inkscape:connector-curvature="0" />
      <path
         d="m 1337.2258,728.8356 c 0,-3.85661 3.0975,-6.95449 6.9543,-6.95449 3.92,0 7.0175,3.09788 7.0175,6.95449 0,3.91974 -3.0975,7.01768 -7.0175,7.01768 -3.8568,0 -6.9543,-3.09794 -6.9543,-7.01768 z m 6.9543,8.97757 c 4.9311,0 8.9143,-3.98304 8.9143,-8.91438 0,-4.93134 -3.9832,-8.91433 -8.9143,-8.91433 -4.8684,0 -8.8511,3.98299 -8.8511,8.91433 0,4.93134 3.9827,8.91438 8.8511,8.91438 z m -0.822,-14.22503 c 1.3908,0 1.96,0.0632 2.5924,0.31606 1.77,0.56905 1.9595,2.14958 1.9595,2.78182 0,0.12644 0,0.44255 -0.1264,0.82186 -0.063,0.37937 -0.3159,1.13804 -1.2011,1.70703 -0.1264,0.0632 -0.1896,0.12644 -0.4424,0.25287 l 2.276,4.10948 -2.2128,0 -2.0232,-3.79336 -1.3907,0 0,3.79336 -1.96,0 0,-9.98912 2.5287,0 z m 0.6956,4.55198 c 0.632,-0.0632 1.2644,-0.0632 1.6436,-0.63224 0.1895,-0.25287 0.2532,-0.50574 0.2532,-0.88511 0,-0.50574 -0.3164,-0.9483 -0.7588,-1.20122 -0.4428,-0.18963 -0.8852,-0.18963 -1.8336,-0.18963 l -0.5687,0 0,2.9082 1.2643,0"
         style="fill:#ea1b22;fill-rule:nonzero;stroke:none"
         id="path16199"
         inkscape:connector-curvature="0" />
    </g>
  </g>
</svg>
